# xmcd CD database file
#
# Track frame offsets:
#	151
#	20962
#	34715
#	47058
#	63069
#	82544
#	98289
#	131686
#	146896
#	162490
#	186467
#	201816
#	224989
#
# Disc length: 3272 seconds
#
# Revision: 0
# Processed by: cddbd v1.5.2PL0 Copyright (c) Steve Scherf et al.
# Submitted via: CDex 1.51
#
DISCID=bc0cc60d
DTITLE=Vestine, Henry  and The Heat Brothers - I Used To Be Mad (But Now I'm Half Crazy)
DYEAR=1981
DGENRE=Blues
TTITLE0=Dust My Broom
TTITLE1=Searching For My Baby
TTITLE2=Sunflower Blues
TTITLE3=Johnny B Goode
TTITLE4=Ninety Nine And A Half
TTITLE5=High School Dance
TTITLE6=Loquismo
TTITLE7=The Stumble
TTITLE8=Let's Work Together
TTITLE9=I Need A Hundred Dollars
TTITLE10=Kings Of The Boogie
TTITLE11=On The Road Again
TTITLE12=LSD Boogie
EXTD=YEAR: 1981
EXTT0=
EXTT1=
EXTT2=
EXTT3=
EXTT4=
EXTT5=
EXTT6=
EXTT7=
EXTT8=
EXTT9=
EXTT10=
EXTT11=
EXTT12=
PLAYORDER=
